<svg width="79" height="71" viewBox="0 0 79 71" fill="none" xmlns="http://www.w3.org/2000/svg">
<g clip-path="url(#clip0_830_613)">
<path d="M71.905 27.69H45.4037V63.9H71.905V27.69Z" fill="#E0A10C"/>
<path d="M66.006 41.89V52.2003H63.6129V41.89H66.006Z" fill="white"/>
<path d="M57.072 41.89H59.4651V48.5857C59.4651 49.3375 59.268 49.9953 58.8737 50.5592C58.4831 51.123 57.936 51.5627 57.2322 51.8782C56.5284 52.1903 55.7087 52.3464 54.7728 52.3464C53.8332 52.3464 53.0115 52.1903 52.3078 51.8782C51.6041 51.5627 51.057 51.123 50.6664 50.5592C50.2758 49.9953 50.0806 49.3375 50.0806 48.5857V41.89H52.4736V48.3994C52.4736 48.7921 52.5676 49.1412 52.7555 49.4466C52.9471 49.752 53.2161 49.9919 53.5624 50.1665C53.9087 50.341 54.3122 50.4283 54.7728 50.4283C55.237 50.4283 55.6405 50.341 55.9832 50.1665C56.3295 49.9919 56.5966 49.752 56.7846 49.4466C56.9761 49.1412 57.072 48.7921 57.072 48.3994V41.89Z" fill="white"/>
<path d="M29.425 62.125V51.7708H26.1774V63.604C26.1774 64.421 26.9044 65.0833 27.8013 65.0833H35.9205V62.125H29.425Z" fill="#E0A10C"/>
<path d="M24.5537 68.0417V65.0834H27.8014V62.125H22.9298C22.033 62.125 21.3059 62.7873 21.3059 63.6042V68.0417C21.3059 69.6755 22.7599 71 24.5536 71H35.9206V68.0417H24.5537Z" fill="#E0A10C"/>
<path d="M73.2691 0H5.06724C2.37677 0 0.195679 1.98675 0.195679 4.4375V48.8125C0.195679 51.2633 2.37677 53.25 5.06724 53.25H35.9205V50.2917H5.06724C4.17041 50.2917 3.44334 49.6295 3.44334 48.8125V4.4375C3.44334 3.62058 4.17041 2.95829 5.06724 2.95829H73.2691C74.1659 2.95829 74.893 3.62058 74.893 4.4375V17.75H78.1406V4.4375C78.1406 1.98675 75.9596 0 73.2691 0Z" fill="#E0A10C"/>
<path d="M29.8731 13.8464L20.7013 13.8409C19.8352 13.839 19.078 14.5295 19.0801 15.3169L19.0822 18.1016C19.0817 18.4959 19.2506 18.8673 19.5577 19.147C19.8648 19.4267 20.2725 19.5807 20.7047 19.5802L29.8774 19.5857C30.3104 19.5867 30.7179 19.4332 31.0245 19.154C31.3311 18.8747 31.4995 18.5034 31.4985 18.1098L31.4965 15.325C31.497 14.9307 31.328 14.5592 31.0209 14.2796C30.7139 13.9999 30.3061 13.846 29.8731 13.8464Z" fill="#E0A10C"/>
<path d="M21.1524 20.5702C20.9014 20.5698 20.6843 20.7269 20.6271 20.9473C20.1956 22.5862 19.2634 24.9202 17.2729 26.7332C17.1025 26.8884 17.0656 27.128 17.1827 27.3203L23.9709 38.4503C24.0921 38.6484 24.3458 38.7456 24.5861 38.6858C24.8247 38.6253 24.9907 38.4245 24.9829 38.1972L24.7159 29.6761C24.7065 29.3897 24.5506 29.1165 24.2876 28.9265C23.7739 28.5545 23.5647 27.9792 23.7276 27.3883C23.8716 26.8698 24.3554 26.4482 24.9336 26.3353C25.4357 26.2388 25.9262 26.3431 26.3138 26.6296C26.6957 26.9116 26.9147 27.3299 26.9147 27.7771C26.9147 28.2249 26.6913 28.6412 26.2992 28.9269C26.0302 29.1202 25.8818 29.3873 25.8732 29.6757L25.6059 38.1972C25.5988 38.4238 25.7626 38.6253 26.0028 38.6858C26.1938 38.7333 26.3929 38.6817 26.5277 38.559C26.5623 38.5274 26.5929 38.4908 26.6179 38.4503L33.4061 27.3203C33.5232 27.128 33.4863 26.8884 33.3158 26.7332C31.3254 24.9201 30.3932 22.5862 29.9616 20.9473C29.9035 20.7265 29.6864 20.5701 29.4364 20.5701L21.1524 20.5702Z" fill="#E0A10C"/>
<path d="M35.9202 68.0417H18.0579V71H35.9202V68.0417Z" fill="#E0A10C"/>
<path d="M73.269 20.7083H44.0396C41.3491 20.7083 39.1681 22.695 39.1681 25.1458V66.5625C39.1681 69.0133 41.3491 71 44.0396 71H73.269C75.9595 71 78.1406 69.0133 78.1406 66.5625V25.1458C78.1406 22.695 75.9595 20.7083 73.269 20.7083ZM74.8929 66.5625C74.8929 67.3794 74.1659 68.0417 73.269 68.0417H44.0396C43.1428 68.0417 42.4157 67.3794 42.4157 66.5625V25.1458C42.4157 24.3289 43.1428 23.6665 44.0396 23.6665H73.269C74.1659 23.6665 74.8929 24.3289 74.8929 25.1458V66.5625Z" fill="#E0A10C"/>
<path d="M71.6453 28.1042H45.6636V31.0625H71.6453V28.1042Z" fill="#E0A10C"/>
<path d="M71.6453 60.6458H45.6636V63.604H71.6453V60.6458Z" fill="#E0A10C"/>
</g>
<defs>
<clipPath id="clip0_830_613">
<rect width="77.9449" height="71" fill="white" transform="translate(0.195679)"/>
</clipPath>
</defs>
</svg>
