<svg width="75" height="71" viewBox="0 0 75 71" fill="none" xmlns="http://www.w3.org/2000/svg">
<g clip-path="url(#clip0_830_591)">
<path d="M73.4538 1.46393H1.54639V18.4114H73.4538V1.46393Z" stroke="#CC5118" stroke-width="3" stroke-miterlimit="10" stroke-linecap="round" stroke-linejoin="round"/>
<path d="M64.5027 12.0559C65.7386 12.0559 66.7405 11.1075 66.7405 9.9375C66.7405 8.76752 65.7386 7.81906 64.5027 7.81906C63.2668 7.81906 62.2649 8.76752 62.2649 9.9375C62.2649 11.1075 63.2668 12.0559 64.5027 12.0559Z" fill="#FFF0E9"/>
<path d="M55.5515 12.0559C56.7874 12.0559 57.7893 11.1075 57.7893 9.9375C57.7893 8.76752 56.7874 7.81906 55.5515 7.81906C54.3156 7.81906 53.3137 8.76752 53.3137 9.9375C53.3137 11.1075 54.3156 12.0559 55.5515 12.0559Z" fill="#FFF0E9"/>
<path d="M54.9099 36.9331H20.4693L25.7679 52.3389H50.3683L54.9099 36.9331Z" fill="#CC5118"/>
<path d="M10.4977 9.93765H46.6013" stroke="#CC5118" stroke-width="3" stroke-miterlimit="10" stroke-linecap="round" stroke-linejoin="round"/>
<path d="M1.54639 18.4113V62.7015C1.54639 66.4761 4.77879 69.5361 8.76603 69.5361H66.2342C70.2213 69.5361 73.4538 66.4761 73.4538 62.7015V18.4113" stroke="#CC5118" stroke-width="3" stroke-miterlimit="10" stroke-linecap="round" stroke-linejoin="round"/>
<path d="M27.8028 61.0624C30.2747 61.0624 32.2784 59.1655 32.2784 56.8255C32.2784 54.4856 30.2747 52.5887 27.8028 52.5887C25.3311 52.5887 23.3273 54.4856 23.3273 56.8255C23.3273 59.1655 25.3311 61.0624 27.8028 61.0624Z" stroke="#CC5118" stroke-width="3" stroke-miterlimit="10" stroke-linecap="round" stroke-linejoin="round"/>
<path d="M47.1969 61.0624C49.6687 61.0624 51.6725 59.1655 51.6725 56.8255C51.6725 54.4856 49.6687 52.5887 47.1969 52.5887C44.7251 52.5887 42.7213 54.4856 42.7213 56.8255C42.7213 59.1655 44.7251 61.0624 47.1969 61.0624Z" stroke="#CC5118" stroke-width="3" stroke-miterlimit="10" stroke-linecap="round" stroke-linejoin="round"/>
<path d="M54.0694 36.2321H20.931L24.4515 49.098C25.0139 51.1532 26.973 52.5887 29.2158 52.5887H45.7846C48.0274 52.5887 49.9866 51.1532 50.549 49.098L54.0694 36.2321Z" stroke="#CC5118" stroke-width="3" stroke-miterlimit="10" stroke-linecap="round" stroke-linejoin="round"/>
<path d="M20.9312 36.2321L18.8218 28.5356H12.869" stroke="#CC5118" stroke-width="3" stroke-miterlimit="10" stroke-linecap="round" stroke-linejoin="round"/>
</g>
<defs>
<clipPath id="clip0_830_591">
<rect width="75" height="71" fill="white"/>
</clipPath>
</defs>
</svg>
