<svg width="71" height="71" viewBox="0 0 71 71" fill="none" xmlns="http://www.w3.org/2000/svg">
<g clip-path="url(#clip0_830_634)">
<path d="M58.4144 0H5.8365C4.2871 0 2.80117 0.623361 1.70559 1.73295C0.61 2.84254 -0.00549316 4.34746 -0.00549316 5.91666V57.6874C-0.00549316 58.0798 0.14838 58.456 0.422277 58.7334C0.69617 59.0108 1.06766 59.1666 1.455 59.1666H26.2835C26.6708 59.1666 27.0423 59.0108 27.3162 58.7334C27.5901 58.456 27.744 58.0798 27.744 57.6874C27.744 57.2952 27.5901 56.9189 27.3162 56.6415C27.0423 56.3641 26.6708 56.2083 26.2835 56.2083H2.9155V11.8334H61.3354V34.0208C61.3354 34.4131 61.4892 34.7894 61.7631 35.0668C62.037 35.3442 62.4085 35.5 62.7959 35.5C63.1832 35.5 63.5547 35.3442 63.8286 35.0668C64.1025 34.7894 64.2564 34.4131 64.2564 34.0208V5.91666C64.2564 4.34746 63.6409 2.84254 62.5453 1.73295C61.4497 0.623361 59.9638 0 58.4144 0ZM2.9155 8.875V5.91666C2.9155 5.13206 3.22325 4.3796 3.77104 3.82481C4.31883 3.27001 5.0618 2.95833 5.8365 2.95833H58.4144C59.1891 2.95833 59.9321 3.27001 60.4798 3.82481C61.0277 4.3796 61.3354 5.13206 61.3354 5.91666V8.875H2.9155Z" fill="#0A72BF"/>
<path d="M7.2971 4.4375C6.90977 4.4375 6.53829 4.59334 6.26439 4.87073C5.9905 5.14813 5.83662 5.52437 5.83662 5.91666C5.83662 6.30897 5.9905 6.6852 6.26439 6.96259C6.53829 7.24001 6.90977 7.39586 7.2971 7.39586C7.68449 7.39586 8.05597 7.24001 8.32987 6.96259C8.60377 6.6852 8.75764 6.30897 8.75764 5.91666C8.75764 5.52437 8.60377 5.14813 8.32987 4.87073C8.05597 4.59334 7.68449 4.4375 7.2971 4.4375Z" fill="#0A72BF"/>
<path d="M13.1388 4.4375C12.7515 4.4375 12.38 4.59334 12.1061 4.87073C11.8323 5.14813 11.6784 5.52437 11.6784 5.91666C11.6784 6.30897 11.8323 6.6852 12.1061 6.96259C12.38 7.24001 12.7515 7.39586 13.1388 7.39586C13.5262 7.39586 13.8977 7.24001 14.1716 6.96259C14.4455 6.6852 14.5994 6.30897 14.5994 5.91666C14.5994 5.52437 14.4455 5.14813 14.1716 4.87073C13.8977 4.59334 13.5262 4.4375 13.1388 4.4375Z" fill="#0A72BF"/>
<path d="M18.981 4.4375C18.5936 4.4375 18.2221 4.59334 17.9483 4.87073C17.6744 5.14813 17.5205 5.52437 17.5205 5.91666C17.5205 6.30897 17.6744 6.6852 17.9483 6.96259C18.2221 7.24001 18.5936 7.39586 18.981 7.39586C19.3683 7.39586 19.7398 7.24001 20.0137 6.96259C20.2876 6.6852 20.4415 6.30897 20.4415 5.91666C20.4415 5.52437 20.2876 5.14813 20.0137 4.87073C19.7398 4.59334 19.3683 4.4375 18.981 4.4375Z" fill="#0A72BF"/>
<path d="M63.6137 38.7097C62.679 38.0737 63.234 38.1625 47.9134 44.375H36.5069C34.6966 44.3943 32.9581 45.0941 31.6285 46.3383C30.2988 47.5826 29.4729 49.2827 29.311 51.1088C29.149 52.9349 29.6626 54.7569 30.7521 56.2212C31.8415 57.6855 33.4292 58.6877 35.2071 59.0335L36.5215 69.6982C36.5643 70.0565 36.7348 70.3866 37.0012 70.6263C37.2674 70.8661 37.6111 70.999 37.9674 71H43.8094C44.0168 71.0014 44.2223 70.9582 44.4119 70.873C44.6016 70.7878 44.7712 70.6627 44.9094 70.5059C45.0476 70.3492 45.1512 70.1644 45.2134 69.9639C45.2755 69.7635 45.2947 69.5519 45.2699 69.3432L43.9992 59.1666H47.9134C63.6429 65.5418 62.3869 65.0832 62.7958 65.0832C63.1832 65.0832 63.5546 64.9275 63.8285 64.6501C64.1024 64.3726 64.2563 63.9964 64.2563 63.6041C64.2563 38.0441 64.5339 39.3458 63.6137 38.7097ZM46.7304 56.2083H37.9674V47.3333H46.7304V56.2083ZM35.0464 47.5847V55.9568C34.1906 55.6519 33.4493 55.0855 32.9249 54.3356C32.4005 53.5858 32.1189 52.6896 32.1189 51.7708C32.1189 50.8519 32.4005 49.9558 32.9249 49.2059C33.4493 48.4561 34.1906 47.8897 35.0464 47.5847ZM42.159 68.0416H39.238L38.1427 59.1666H41.0636L42.159 68.0416ZM61.3354 61.415L49.6514 56.6816V46.86L61.3354 42.1266V61.415Z" fill="#0A72BF"/>
<path d="M68.6379 50.2917H67.1774C66.7901 50.2917 66.4186 50.4475 66.1447 50.7249C65.8708 51.0023 65.7169 51.3785 65.7169 51.7708C65.7169 52.1631 65.8708 52.5393 66.1447 52.8167C66.4186 53.0941 66.7901 53.25 67.1774 53.25H68.6379C69.0253 53.25 69.3967 53.0941 69.6706 52.8167C69.9445 52.5393 70.0984 52.1631 70.0984 51.7708C70.0984 51.3785 69.9445 51.0023 69.6706 50.7249C69.3967 50.4475 69.0253 50.2917 68.6379 50.2917Z" fill="#0A72BF"/>
<path d="M67.1773 44.3751C67.9514 44.3751 68.1559 43.9904 69.6748 42.4669C69.811 42.329 69.919 42.1652 69.9927 41.9851C70.0664 41.8049 70.104 41.6117 70.104 41.4167C70.104 41.2217 70.0664 41.0285 69.9927 40.8483C69.919 40.6681 69.811 40.5044 69.6748 40.3665C69.5386 40.2286 69.377 40.1192 69.1991 40.0445C69.0211 39.9699 68.8304 39.9315 68.6379 39.9315C68.4453 39.9315 68.2545 39.9699 68.0767 40.0445C67.8988 40.1192 67.7371 40.2286 67.6009 40.3665L66.1404 41.8457C65.9345 42.0526 65.794 42.3169 65.7369 42.605C65.6798 42.893 65.7088 43.1918 65.82 43.4631C65.9312 43.7344 66.1197 43.9661 66.3615 44.1285C66.6032 44.2909 66.8872 44.3768 67.1773 44.3751Z" fill="#0A72BF"/>
<path d="M68.2144 59.5955C67.9394 59.317 67.5663 59.1605 67.1774 59.1605C66.7885 59.1605 66.4154 59.317 66.1405 59.5955C65.8655 59.8741 65.711 60.2519 65.711 60.6458C65.711 61.0397 65.8655 61.4174 66.1405 61.6959C67.6886 63.2639 67.8784 63.6041 68.6379 63.6041C68.928 63.6058 69.212 63.52 69.4537 63.3575C69.6955 63.1952 69.884 62.9635 69.9952 62.6921C70.1068 62.4208 70.1356 62.1221 70.0784 61.834C70.0213 61.5459 69.8808 61.2816 69.6749 61.0747L68.2144 59.5955Z" fill="#0A72BF"/>
<path d="M42.3489 34.0207C42.3489 32.8521 42.641 33.3551 27.0283 23.8736C26.8066 23.7405 26.554 23.6691 26.2962 23.6669C26.0385 23.6646 25.7847 23.7314 25.5606 23.8606C25.3367 23.9898 25.1505 24.1768 25.0208 24.4025C24.8913 24.6282 24.823 24.8846 24.823 25.1457C24.823 44.153 24.5309 43.5909 25.5679 44.1825C25.7899 44.3124 26.0417 44.3808 26.2981 44.3808C26.5544 44.3808 26.8063 44.3124 27.0283 44.1825C42.5826 34.7159 42.3489 35.204 42.3489 34.0207ZM27.744 40.2775V27.7639L38.055 34.0207L27.744 40.2775Z" fill="#0A72BF"/>
<path d="M26.634 42.955V25.56L41.0053 34.08L26.634 42.955Z" fill="#0A72BF"/>
<path d="M53.9745 59.285V44.375L63.088 40.47V63.19L53.9745 59.285Z" fill="#0A72BF"/>
</g>
<defs>
<clipPath id="clip0_830_634">
<rect width="70.8049" height="71" fill="white" transform="translate(-0.00549316)"/>
</clipPath>
</defs>
</svg>
