<svg width="50" height="50" viewBox="0 0 50 50" fill="none" xmlns="http://www.w3.org/2000/svg">
<path d="M26.2285 29.7227C25.5273 29.7227 24.959 30.291 24.959 30.9922C24.9584 34.2784 22.294 36.9419 19.0078 36.9414C15.7216 36.9408 13.058 34.2765 13.0586 30.9902C13.0592 27.7044 15.7229 25.041 19.0088 25.041C19.71 25.041 20.2783 24.4727 20.2783 23.7715C20.2783 23.0703 19.71 22.502 19.0088 22.502C14.3211 22.5052 10.5218 26.3045 10.5186 30.9922C10.5186 35.681 14.3195 39.4819 19.0083 39.4819C23.6971 39.4819 27.498 35.681 27.498 30.9922C27.498 30.291 26.9297 29.7227 26.2285 29.7227Z" fill="white"/>
<path d="M36.3145 33.9121C36.1934 33.2215 35.5354 32.7598 34.8447 32.8809L32.1875 33.3467C31.9494 33.3884 31.7282 33.4972 31.5498 33.6604C31.3715 33.8235 31.2434 34.0342 31.1807 34.2676C30.8974 35.3192 30.4781 36.3293 29.9336 37.2725C29.812 37.4823 29.7531 37.7226 29.7638 37.9649C29.7746 38.2072 29.8545 38.4414 29.9941 38.6397L31.5449 40.8496C31.65 40.9987 31.699 41.1801 31.6833 41.3619C31.6676 41.5436 31.5881 41.7139 31.459 41.8428L29.8652 43.4365C29.7366 43.5656 29.5665 43.645 29.385 43.6609C29.2035 43.6768 29.0222 43.6281 28.873 43.5234L26.6631 41.9727C26.4648 41.833 26.2306 41.7531 25.9883 41.7424C25.7461 41.7316 25.5058 41.7905 25.2959 41.9121C24.3528 42.4568 23.3426 42.876 22.291 43.1592C22.0576 43.2219 21.8469 43.35 21.6838 43.5284C21.5207 43.7067 21.4118 43.9279 21.3701 44.166L20.8984 46.8203C20.8671 46.9998 20.7735 47.1625 20.6339 47.2797C20.4944 47.3969 20.318 47.4611 20.1357 47.4609H17.8809C17.6986 47.4611 17.5222 47.3969 17.3827 47.2797C17.2431 47.1625 17.1495 46.9998 17.1182 46.8203L16.6523 44.1641C16.6106 43.926 16.5018 43.7048 16.3387 43.5264C16.1755 43.3481 15.9649 43.22 15.7314 43.1572C14.6796 42.8739 13.6691 42.4547 12.7256 41.9102C12.5157 41.7886 12.2754 41.7297 12.0331 41.7404C11.7908 41.7511 11.5567 41.8311 11.3584 41.9707L9.15235 43.5205C9.00325 43.6256 8.82181 43.6746 8.64007 43.6589C8.45834 43.6432 8.28801 43.5637 8.15918 43.4346L6.56543 41.8408C6.43657 41.7121 6.35721 41.542 6.34131 41.3606C6.32542 41.1791 6.374 40.9978 6.47852 40.8486L8.0293 38.6387C8.16893 38.4404 8.24884 38.2062 8.25957 37.9639C8.2703 37.7216 8.2114 37.4814 8.08985 37.2715C7.54503 36.3285 7.12579 35.3183 6.84278 34.2666C6.78003 34.0332 6.65195 33.8225 6.47359 33.6594C6.29524 33.4963 6.07402 33.3874 5.83594 33.3457L3.17969 32.8799C3.0005 32.8486 2.83805 32.7553 2.72089 32.6161C2.60373 32.477 2.53935 32.301 2.53907 32.1191V29.8643C2.53889 29.682 2.60306 29.5056 2.72026 29.3661C2.83746 29.2265 3.00017 29.1329 3.17969 29.1016L5.83594 28.6357C6.07402 28.594 6.29524 28.4852 6.47359 28.3221C6.65195 28.1589 6.78003 27.9483 6.84278 27.7148C7.12557 26.6622 7.54482 25.651 8.08985 24.707C8.2114 24.4972 8.2703 24.2569 8.25957 24.0146C8.24884 23.7723 8.16893 23.5381 8.0293 23.3398L6.47949 21.1367C6.3744 20.9876 6.32539 20.8062 6.34111 20.6244C6.35684 20.4427 6.43629 20.2724 6.56543 20.1436L8.16016 18.5488C8.28893 18.4199 8.45907 18.3406 8.64058 18.3249C8.82209 18.3092 9.00333 18.3581 9.15235 18.4629L11.3623 20.0137C11.5606 20.1533 11.7947 20.2332 12.037 20.244C12.2793 20.2547 12.5196 20.1958 12.7295 20.0742C13.673 19.5296 14.6834 19.1104 15.7354 18.8271C15.9688 18.7644 16.1794 18.6363 16.3426 18.458C16.5057 18.2796 16.6145 18.0584 16.6563 17.8203L17.1221 15.1641C17.2432 14.4734 16.7814 13.8154 16.0908 13.6943C15.4002 13.5732 14.7422 14.035 14.6211 14.7256L14.291 16.6104C13.567 16.8495 12.8622 17.1434 12.1826 17.4893L10.6152 16.3896C9.29844 15.4631 7.50576 15.6193 6.36914 16.7598L4.76953 18.3486C3.63018 19.4858 3.47442 21.2779 4.40039 22.5947L5.5 24.1621C5.15398 24.8419 4.86016 25.5471 4.6211 26.2715L2.73633 26.6016C1.15254 26.8797 -0.0019504 28.2562 2.72278e-06 29.8643V32.1191C-0.00204806 33.7287 1.15459 35.1063 2.74024 35.3828L4.625 35.7139C4.86409 36.4379 5.15791 37.1428 5.50391 37.8223L4.40039 39.3896C3.47471 40.7066 3.63086 42.4987 4.77051 43.6357L6.36524 45.2295C7.50225 46.3692 9.29463 46.525 10.6113 45.5986L12.1738 44.499C12.8534 44.8449 13.5582 45.1387 14.2822 45.3779L14.6123 47.2627C14.8904 48.849 16.2703 50.0047 17.8809 50H20.1357C21.7457 50.002 23.1233 48.8448 23.3994 47.2588L23.7305 45.374C24.4545 45.1349 25.1593 44.841 25.8389 44.4951L27.4072 45.5947C28.7241 46.5209 30.5165 46.3647 31.6533 45.2246L33.248 43.6299C34.3877 42.4929 34.5438 40.7008 33.6182 39.3838L32.5195 37.8213C32.8654 37.1417 33.1592 36.4369 33.3984 35.7129L35.2832 35.3818C35.9738 35.2607 36.4355 34.6027 36.3145 33.9121Z" fill="white"/>
<path d="M47.6172 11.5234L46.2891 11.291C46.1232 10.8121 45.9275 10.3441 45.7031 9.88965L46.4844 8.78907C47.2893 7.64453 47.1536 6.08682 46.1631 5.09864L44.9053 3.83789C43.9166 2.84532 42.3566 2.70918 41.2109 3.51563L40.1065 4.29004C39.652 4.06562 39.184 3.86993 38.7051 3.70411L38.4766 2.38184C38.2361 1.00313 37.0382 -0.00224234 35.6387 3.75598e-06H33.8623C32.4629 -0.00175406 31.2653 1.00411 31.0254 2.38282L30.792 3.71094C30.3131 3.87676 29.845 4.07246 29.3906 4.29688L28.2861 3.51563C27.1416 2.71075 25.5839 2.84639 24.5957 3.83692L23.3398 5.09473C22.3473 6.0834 22.2111 7.64346 23.0176 8.78907L23.792 9.89356C23.5676 10.348 23.3719 10.816 23.2061 11.2949L21.8828 11.5234C20.5045 11.7639 19.4992 12.9612 19.501 14.3604V16.1367C19.4982 17.5365 20.5038 18.7351 21.8828 18.9756L23.21 19.208C23.3758 19.6869 23.5715 20.155 23.7959 20.6094L23.0205 21.7139C22.2155 22.858 22.3503 24.4154 23.3398 25.4043L24.5957 26.6602C25.5841 27.6513 27.1424 27.7869 28.2871 26.9814L29.3945 26.207C29.849 26.4314 30.317 26.627 30.7959 26.793L31.0293 28.1211C31.2697 29.4994 32.4671 30.5047 33.8662 30.5029H35.6426C37.0421 30.5029 38.2385 29.4954 38.4766 28.1162L38.709 26.7891C39.1879 26.6232 39.6559 26.4275 40.1104 26.2031L41.2109 26.9824C42.3565 27.7893 43.9168 27.6531 44.9053 26.6602L46.1621 25.4033C47.1521 24.4153 47.288 22.8585 46.4844 21.7139L45.708 20.6055C45.9323 20.151 46.128 19.683 46.294 19.2041L47.6221 18.9707C48.9974 18.7289 50.0002 17.5341 50 16.1377V14.3613C50.0023 12.9615 48.9963 11.7635 47.6172 11.5234ZM47.4609 16.1406C47.461 16.2209 47.4327 16.2986 47.3811 16.3601C47.3294 16.4215 47.2578 16.4628 47.1787 16.4766L45.085 16.8438C44.8469 16.8855 44.6257 16.9943 44.4473 17.1574C44.269 17.3206 44.1409 17.5312 44.0781 17.7647C43.861 18.5709 43.5396 19.3453 43.1221 20.0684C43.0005 20.2782 42.9416 20.5185 42.9523 20.7608C42.9631 21.0031 43.043 21.2373 43.1826 21.4355L44.4043 23.1777C44.4506 23.2435 44.4721 23.3234 44.4651 23.4034C44.4581 23.4835 44.4231 23.5585 44.3662 23.6152L43.1104 24.8711C43.053 24.9262 42.9781 24.9595 42.8987 24.9652C42.8193 24.9709 42.7405 24.9487 42.6758 24.9023L40.9307 23.6816C40.7324 23.542 40.4982 23.4621 40.2559 23.4513C40.0136 23.4406 39.7733 23.4995 39.5635 23.6211C38.8405 24.0387 38.066 24.3601 37.2598 24.5772C37.0268 24.6407 36.8168 24.7693 36.6544 24.948C36.492 25.1267 36.3839 25.348 36.3428 25.5859L35.9756 27.6797C35.9618 27.7588 35.9205 27.8304 35.8591 27.882C35.7976 27.9337 35.7199 27.962 35.6397 27.9619H33.8623C33.782 27.962 33.7043 27.9337 33.6429 27.882C33.5814 27.8304 33.5402 27.7588 33.5264 27.6797L33.1582 25.5859C33.1165 25.3479 33.0077 25.1266 32.8445 24.9483C32.6814 24.7699 32.4707 24.6419 32.2373 24.5791C31.4308 24.3619 30.656 24.0405 29.9326 23.623C29.7228 23.5015 29.4825 23.4426 29.2402 23.4533C28.9979 23.464 28.7637 23.5439 28.5654 23.6836L26.8281 24.9023C26.7624 24.9486 26.6825 24.9701 26.6024 24.9632C26.5224 24.9562 26.4474 24.9212 26.3906 24.8643L25.1348 23.6084C25.0779 23.5517 25.0428 23.4767 25.0359 23.3966C25.0289 23.3166 25.0504 23.2366 25.0967 23.1709L26.3184 21.4287C26.458 21.2304 26.5379 20.9963 26.5487 20.754C26.5594 20.5117 26.5005 20.2714 26.3789 20.0615C25.9612 19.3385 25.6398 18.5641 25.4229 17.7578C25.3592 17.525 25.2305 17.3152 25.0518 17.153C24.8731 16.9907 24.6519 16.8828 24.4141 16.8418L22.3203 16.4746C22.2412 16.4608 22.1696 16.4196 22.118 16.3581C22.0663 16.2966 22.038 16.2189 22.0381 16.1387L22.0391 14.3613C22.039 14.2811 22.0673 14.2034 22.1189 14.1419C22.1706 14.0805 22.2422 14.0392 22.3213 14.0254L24.4141 13.6572C24.6521 13.6155 24.8734 13.5067 25.0517 13.3435C25.2301 13.1804 25.3582 12.9698 25.4209 12.7363C25.638 11.9301 25.9594 11.1557 26.377 10.4326C26.4985 10.2228 26.5574 9.98246 26.5467 9.74017C26.536 9.49787 26.4561 9.26372 26.3164 9.06543L25.0977 7.32422C25.0514 7.25851 25.0299 7.17857 25.0368 7.09852C25.0438 7.01847 25.0788 6.94346 25.1357 6.88672L26.3926 5.62989C26.4493 5.57298 26.5243 5.53795 26.6044 5.53099C26.6844 5.52402 26.7644 5.54556 26.8301 5.5918L28.5713 6.81348C28.7696 6.95311 29.0037 7.03302 29.246 7.04375C29.4883 7.05448 29.7286 6.99558 29.9385 6.87403C30.6615 6.45646 31.436 6.13505 32.2422 5.91797C32.4756 5.85522 32.6863 5.72715 32.8494 5.54879C33.0125 5.37043 33.1214 5.14922 33.1631 4.91114L33.5303 2.81739C33.5448 2.73969 33.5858 2.66945 33.6464 2.61868C33.707 2.56791 33.7833 2.53976 33.8623 2.53907H35.6387C35.7189 2.53902 35.7966 2.5673 35.8581 2.61893C35.9196 2.67056 35.9608 2.74222 35.9746 2.82129L36.3418 4.91504C36.3835 5.15312 36.4924 5.37434 36.6555 5.5527C36.8186 5.73105 37.0293 5.85913 37.2627 5.92188C38.069 6.13886 38.8434 6.46026 39.5664 6.87793C39.7763 6.99951 40.0166 7.05842 40.2589 7.04769C40.5012 7.03696 40.7353 6.95704 40.9336 6.81739L42.6758 5.59571C42.7415 5.54946 42.8214 5.52792 42.9015 5.53489C42.9815 5.54186 43.0566 5.57689 43.1133 5.63379L44.3701 6.89063C44.4255 6.94759 44.4592 7.02209 44.4654 7.10126C44.4716 7.18043 44.45 7.25929 44.4043 7.32422L43.1826 9.06934C43.043 9.26763 42.9631 9.50178 42.9523 9.74407C42.9416 9.98637 43.0005 10.2267 43.1221 10.4365C43.5396 11.1596 43.861 11.934 44.0781 12.7402C44.1409 12.9737 44.269 13.1843 44.4473 13.3474C44.6257 13.5106 44.8469 13.6194 45.085 13.6611L47.1787 14.0283C47.2578 14.0421 47.3294 14.0834 47.3811 14.1448C47.4327 14.2063 47.461 14.284 47.4609 14.3643V16.1406Z" fill="white"/>
<path d="M34.75 9.18457C31.4002 9.18457 28.6846 11.9002 28.6846 15.25C28.6884 18.5982 31.4018 21.3116 34.75 21.3154C38.0998 21.3154 40.8154 18.5998 40.8154 15.25C40.8154 11.9002 38.0998 9.18457 34.75 9.18457ZM34.75 18.7764C32.8024 18.7764 31.2236 17.1976 31.2236 15.25C31.2231 13.3015 32.8015 11.7209 34.75 11.7188V11.7236C36.6976 11.7236 38.2764 13.3024 38.2764 15.25C38.2764 17.1976 36.6976 18.7764 34.75 18.7764Z" fill="white"/>
</svg>
