<svg width="71" height="71" viewBox="0 0 71 71" fill="none" xmlns="http://www.w3.org/2000/svg">
<g clip-path="url(#clip0_830_685)">
<path d="M68.8079 27.9588V66.039C68.8079 67.6574 67.5832 68.9682 66.0712 68.9682H35.1465H4.22181C2.70978 68.9682 1.48511 67.6574 1.48511 66.039V13.3126V4.52483C1.48511 2.90642 2.70978 1.59558 4.22181 1.59558H66.0712C67.5832 1.59558 68.8079 2.90642 68.8079 4.52483V13.3126V27.9588Z" stroke="#4F8E21" stroke-width="4.73333" stroke-miterlimit="10" stroke-linecap="round" stroke-linejoin="round"/>
<path d="M7.29917 12.3652C8.38452 12.3652 9.26436 11.4234 9.26436 10.2618C9.26436 9.10007 8.38452 8.15833 7.29917 8.15833C6.21383 8.15833 5.33398 9.10007 5.33398 10.2618C5.33398 11.4234 6.21383 12.3652 7.29917 12.3652Z" fill="#4F8E21"/>
<path d="M13.4655 12.3652C14.5509 12.3652 15.4307 11.4234 15.4307 10.2618C15.4307 9.10007 14.5509 8.15833 13.4655 8.15833C12.3802 8.15833 11.5004 9.10007 11.5004 10.2618C11.5004 11.4234 12.3802 12.3652 13.4655 12.3652Z" fill="#4F8E21"/>
<path d="M19.6319 12.3652C20.7172 12.3652 21.597 11.4234 21.597 10.2618C21.597 9.10007 20.7172 8.15833 19.6319 8.15833C18.5465 8.15833 17.6666 9.10007 17.6666 10.2618C17.6666 11.4234 18.5465 12.3652 19.6319 12.3652Z" fill="#4F8E21"/>
<path d="M50.7982 11.3493H59.742C60.5652 11.3493 61.2327 10.6349 61.2327 9.75383C61.2327 8.87263 60.5652 8.15833 59.742 8.15833H50.7982C49.975 8.15833 49.3076 8.87263 49.3076 9.75383C49.3076 10.6349 49.975 11.3493 50.7982 11.3493Z" fill="#4F8E21"/>
<path d="M52.2247 36.1567L49.7192 35.6204C49.4435 34.6424 49.0782 33.6981 48.6282 32.8L50.0453 30.5248C50.3115 30.0973 50.2589 29.5281 49.9195 29.165L46.1225 25.1009C45.7832 24.7376 45.2514 24.6812 44.8522 24.9661L42.7263 26.483C41.8874 26.0014 41.0051 25.6104 40.0913 25.3152L39.5902 22.6332C39.4962 22.1295 39.083 21.767 38.603 21.767H33.2333C32.7534 21.767 32.3401 22.1295 32.246 22.6332L31.7449 25.3152C30.8311 25.6104 29.9489 26.0014 29.1099 26.483L26.9841 24.9661C26.5849 24.6812 26.0531 24.7376 25.7137 25.1009L21.9167 29.165C21.5773 29.5282 21.5247 30.0973 21.791 30.5248L23.2081 32.8C22.758 33.6981 22.3928 34.6424 22.1171 35.6204L19.6115 36.1567C19.1409 36.2574 18.8021 36.6998 18.8021 37.2135V42.961C18.8021 43.4747 19.1409 43.9171 19.6115 44.0177L22.1171 44.5541C22.3928 45.532 22.7581 46.4763 23.2082 47.3744L21.7911 49.6497C21.5248 50.0771 21.5775 50.6463 21.9168 51.0095L25.7137 55.0735C26.0532 55.4369 26.5849 55.4932 26.9842 55.2083L29.0665 53.7226V46.9574C27.4896 45.1609 26.5211 42.7473 26.5211 40.0872C26.5211 34.5322 30.7283 30.0291 35.9181 30.0291C41.108 30.0291 45.3152 34.5322 45.3152 40.0872C45.3152 42.7473 44.3467 45.1609 42.7699 46.9574V53.7226L44.8522 55.2083C45.0225 55.3299 45.2169 55.3893 45.4103 55.3893C45.6701 55.3893 45.9279 55.2819 46.1225 55.0736L49.9194 51.0096C50.2588 50.6463 50.3114 50.0771 50.0452 49.6498L48.6281 47.3744C49.0781 46.4764 49.4434 45.5321 49.7191 44.5541L52.2247 44.0177C52.6954 43.9171 53.0342 43.4747 53.0342 42.961V37.2135C53.0342 36.6998 52.6954 36.2574 52.2247 36.1567Z" fill="#4F8E21"/>
<path d="M39.1075 34.1825C38.6008 33.8683 37.9579 34.2017 37.8742 34.822L37.2603 39.3689H34.5755L33.9617 34.822C33.8779 34.2017 33.2351 33.8683 32.7284 34.1825C30.7625 35.4014 29.5414 37.664 29.5414 40.0873C29.5414 42.7134 30.9153 45.0625 33.1271 46.218L33.2331 46.2734V57.4736C33.2331 58.0687 33.6838 58.5513 34.2399 58.5513H37.5959C38.152 58.5513 38.6028 58.0687 38.6028 57.4736V46.2734L38.7088 46.218C40.9205 45.0625 42.2945 42.7134 42.2945 40.0873C42.2945 37.664 41.0733 35.4014 39.1075 34.1825Z" fill="#4F8E21"/>
</g>
<defs>
<clipPath id="clip0_830_685">
<rect width="70.8049" height="71" fill="white" transform="translate(-0.00549316)"/>
</clipPath>
</defs>
</svg>
