<svg width="71" height="71" viewBox="0 0 71 71" fill="none" xmlns="http://www.w3.org/2000/svg">
<path d="M67.1588 1.4006H3.84121C1.72314 1.4006 0 3.1236 0 5.24182V50.0689C0 52.187 1.72314 53.9101 3.84121 53.9101H9.98438C10.5589 53.9101 11.0244 53.4446 11.0244 52.8701C11.0244 52.2955 10.5589 51.83 9.98438 51.83H3.84121C2.87009 51.83 2.08008 51.04 2.08008 50.0689V5.24182C2.08008 4.2707 2.87009 3.48068 3.84121 3.48068H67.1588C68.1299 3.48068 68.9199 4.2707 68.9199 5.24182V50.0689C68.9199 51.04 68.1299 51.83 67.1588 51.83H14.8379C14.2634 51.83 13.7979 52.2955 13.7979 52.8701C13.7979 53.4446 14.2634 53.9101 14.8379 53.9101H25.9927C25.7946 55.7367 24.9779 59.6935 21.6298 63.0362H18.13C17.093 63.0362 16.2494 63.8798 16.2494 64.9166V67.7192C16.2494 68.7562 17.093 69.5997 18.13 69.5997H43.9992C44.5737 69.5997 45.0392 69.1342 45.0392 68.5597C45.0392 67.9852 44.5737 67.5196 43.9992 67.5196H18.3296V65.1164H52.6704V67.5196H48.8527C48.2782 67.5196 47.8127 67.9852 47.8127 68.5597C47.8127 69.1342 48.2782 69.5997 48.8527 69.5997H52.87C53.907 69.5997 54.7506 68.7562 54.7506 67.7192V64.9166C54.7506 63.8798 53.907 63.0362 52.87 63.0362H49.3704C46.0409 59.71 45.2151 55.741 45.0111 53.9101H67.1588C69.2769 53.9101 71 52.187 71 50.0689V5.24182C71 3.1236 69.2769 1.4006 67.1588 1.4006ZM46.5849 63.0361H24.4151C27.2374 59.4851 27.9221 55.7081 28.0854 53.91H42.9145C43.0779 55.7083 43.7626 59.4851 46.5849 63.0361Z" fill="#039873"/>
<path d="M58.5598 45.2251H65.4767C66.0512 45.2251 66.5167 44.7596 66.5167 44.1851V6.92392C66.5167 6.3494 66.0512 5.88388 65.4767 5.88388H5.5233C5.38672 5.88386 5.25146 5.91075 5.12527 5.96301C4.99908 6.01527 4.88442 6.09188 4.78784 6.18846C4.69126 6.28504 4.61465 6.3997 4.56239 6.52589C4.51013 6.65208 4.48324 6.78733 4.48326 6.92392V44.1851C4.48326 44.7596 4.94878 45.2251 5.5233 45.2251H53.7062C54.2808 45.2251 54.7463 44.7596 54.7463 44.1851C54.7463 43.6105 54.2808 43.145 53.7062 43.145H6.56334V7.96396H64.4367V43.145H58.5598C57.9852 43.145 57.5197 43.6105 57.5197 44.1851C57.5197 44.7596 57.9852 45.2251 58.5598 45.2251Z" fill="#039873"/>
<path d="M17.489 12.6669C17.489 12.0924 17.0235 11.6268 16.449 11.6268H10.0052C9.86859 11.6268 9.73334 11.6537 9.60714 11.706C9.48095 11.7582 9.36629 11.8348 9.26971 11.9314C9.17313 12.028 9.09652 12.1427 9.04426 12.2688C8.992 12.395 8.96512 12.5303 8.96513 12.6669V18.27C8.96513 18.8446 9.43066 19.3101 10.0052 19.3101H16.449C17.0235 19.3101 17.489 18.8446 17.489 18.27V12.6669ZM15.4089 17.23H11.0452V13.7069H15.4089V17.23ZM22.0522 19.3101H39.4222C39.9967 19.3101 40.4622 18.8446 40.4622 18.27C40.4622 17.6955 39.9967 17.23 39.4222 17.23H22.0522C21.4776 17.23 21.0121 17.6955 21.0121 18.27C21.0121 18.8446 21.4778 19.3101 22.0522 19.3101ZM44.4651 11.6268H30.1769C29.6024 11.6268 29.1369 12.0924 29.1369 12.6669C29.1369 13.2414 29.6024 13.7069 30.1769 13.7069H44.4651C45.0397 13.7069 45.5052 13.2414 45.5052 12.6669C45.5052 12.0924 45.0397 11.6268 44.4651 11.6268ZM22.0522 13.7069H25.2739C25.8484 13.7069 26.314 13.2414 26.314 12.6669C26.314 12.0924 25.8484 11.6268 25.2739 11.6268H22.0522C21.4776 11.6268 21.0121 12.0924 21.0121 12.6669C21.0121 13.2414 21.4778 13.7069 22.0522 13.7069ZM17.489 22.7526C17.489 22.1781 17.0235 21.7126 16.449 21.7126H10.0052C9.86859 21.7126 9.73334 21.7394 9.60714 21.7917C9.48095 21.844 9.36629 21.9206 9.26971 22.0172C9.17313 22.1137 9.09652 22.2284 9.04426 22.3546C8.992 22.4808 8.96512 22.616 8.96513 22.7526V28.3558C8.96513 28.9303 9.43066 29.3958 10.0052 29.3958H16.449C17.0235 29.3958 17.489 28.9303 17.489 28.3558V22.7526ZM15.4089 27.3158H11.0452V23.7927H15.4089V27.3158ZM22.0522 29.3958H39.4222C39.9967 29.3958 40.4622 28.9303 40.4622 28.3558C40.4622 27.7813 39.9967 27.3158 39.4222 27.3158H22.0522C21.4776 27.3158 21.0121 27.7813 21.0121 28.3558C21.0121 28.9303 21.4778 29.3958 22.0522 29.3958ZM44.4651 21.7126H30.1769C29.6024 21.7126 29.1369 22.1781 29.1369 22.7526C29.1369 23.3271 29.6024 23.7927 30.1769 23.7927H44.4651C45.0397 23.7927 45.5052 23.3271 45.5052 22.7526C45.5052 22.1781 45.0397 21.7126 44.4651 21.7126ZM22.0522 23.7927H25.2739C25.8484 23.7927 26.314 23.3271 26.314 22.7526C26.314 22.1781 25.8484 21.7126 25.2739 21.7126H22.0522C21.4776 21.7126 21.0121 22.1781 21.0121 22.7526C21.0121 23.3271 21.4778 23.7927 22.0522 23.7927ZM16.449 31.7985H10.0052C9.86859 31.7984 9.73334 31.8253 9.60714 31.8776C9.48095 31.9299 9.36629 32.0065 9.26971 32.103C9.17313 32.1996 9.09652 32.3143 9.04426 32.4405C8.992 32.5667 8.96512 32.7019 8.96513 32.8385V38.4418C8.96513 39.0163 9.43066 39.4819 10.0052 39.4819H16.449C17.0235 39.4819 17.489 39.0163 17.489 38.4418V32.8385C17.489 32.264 17.0235 31.7985 16.449 31.7985ZM15.4089 37.4018H11.0452V33.8785H15.4089V37.4018ZM22.0522 39.4819H39.4222C39.9967 39.4819 40.4622 39.0163 40.4622 38.4418C40.4622 37.8673 39.9967 37.4018 39.4222 37.4018H22.0522C21.4776 37.4018 21.0121 37.8673 21.0121 38.4418C21.0121 39.0163 21.4778 39.4819 22.0522 39.4819ZM45.5052 32.8385C45.5052 32.264 45.0397 31.7985 44.4651 31.7985H30.1769C29.6024 31.7985 29.1369 32.264 29.1369 32.8385C29.1369 33.413 29.6024 33.8785 30.1769 33.8785H44.4651C44.6017 33.8785 44.737 33.8516 44.8631 33.7994C44.9893 33.7471 45.104 33.6705 45.2006 33.5739C45.2971 33.4773 45.3737 33.3627 45.426 33.2365C45.4783 33.1103 45.5052 32.9751 45.5052 32.8385ZM22.0522 33.8785H25.2739C25.8484 33.8785 26.314 33.413 26.314 32.8385C26.314 32.264 25.8484 31.7985 25.2739 31.7985H22.0522C21.4776 31.7985 21.0121 32.264 21.0121 32.8385C21.0121 33.413 21.4778 33.8785 22.0522 33.8785ZM62.0338 29.9624C62.0242 29.7469 61.9478 29.5397 61.8152 29.3695C61.6826 29.1993 61.5003 29.0745 61.2937 29.0125L49.2467 25.3985C49.0668 25.3445 48.8757 25.3402 48.6936 25.3862C48.5114 25.4321 48.3452 25.5264 48.2124 25.6592C48.0796 25.792 47.9852 25.9583 47.9393 26.1404C47.8934 26.3225 47.8976 26.5137 47.9516 26.6935L51.5657 38.7405C51.63 38.9548 51.7616 39.1427 51.9411 39.2762C52.1207 39.4097 52.3385 39.4818 52.5622 39.4817C52.77 39.4817 52.9731 39.4193 53.1451 39.3028C53.3172 39.1862 53.4504 39.0208 53.5276 38.8279L55.7713 33.2182L61.381 30.9743C61.5814 30.8942 61.7518 30.7538 61.8688 30.5725C61.9857 30.3912 62.0434 30.178 62.0338 29.9624ZM54.585 31.4525C54.4542 31.5048 54.3354 31.5832 54.2358 31.6828C54.1362 31.7824 54.0578 31.9012 54.0055 32.032L52.7024 35.2902L50.499 27.9459L57.8434 30.1492L54.585 31.4525Z" fill="#039873"/>
</svg>
